<mxfile host="app.diagrams.net" modified="2023-06-08T10:08:03.494Z" agent="Mozilla/5.0 (Windows NT 10.0; Win64; x64) AppleWebKit/537.36 (KHTML, like Gecko) Chrome/114.0.0.0 Safari/537.36 Edg/114.0.1823.37" etag="k670vrjhWz4UPvmA0HsT" version="21.3.5" type="github">
  <diagram name="第 1 页" id="il3vyu_xIt6D0rI315Fc">
    <mxGraphModel dx="522" dy="-439" grid="1" gridSize="10" guides="1" tooltips="1" connect="1" arrows="1" fold="1" page="1" pageScale="1" pageWidth="827" pageHeight="1169" math="0" shadow="0">
      <root>
        <mxCell id="0" />
        <mxCell id="1" parent="0" />
        <mxCell id="RTWIzIe-_CMWSQACLZg5-1" style="edgeStyle=orthogonalEdgeStyle;rounded=0;orthogonalLoop=1;jettySize=auto;html=1;exitX=0.5;exitY=1;exitDx=0;exitDy=0;entryX=0.5;entryY=0;entryDx=0;entryDy=0;" edge="1" parent="1" source="RTWIzIe-_CMWSQACLZg5-2" target="RTWIzIe-_CMWSQACLZg5-3">
          <mxGeometry relative="1" as="geometry" />
        </mxCell>
        <mxCell id="RTWIzIe-_CMWSQACLZg5-2" value="&lt;font face=&quot;Times New Roman&quot; style=&quot;font-size: 18px;&quot;&gt;workbench&lt;/font&gt;" style="rounded=1;whiteSpace=wrap;html=1;" vertex="1" parent="1">
          <mxGeometry x="1547" y="2050" width="120" height="60" as="geometry" />
        </mxCell>
        <mxCell id="RTWIzIe-_CMWSQACLZg5-3" value="&lt;font face=&quot;Times New Roman&quot; style=&quot;font-size: 18px;&quot;&gt;asub&lt;/font&gt;" style="rounded=1;whiteSpace=wrap;html=1;" vertex="1" parent="1">
          <mxGeometry x="1492" y="2338" width="230" height="130" as="geometry" />
        </mxCell>
        <mxCell id="RTWIzIe-_CMWSQACLZg5-4" value="&lt;font face=&quot;Times New Roman&quot; style=&quot;font-size: 18px;&quot;&gt;lsf&lt;/font&gt;" style="rounded=1;whiteSpace=wrap;html=1;" vertex="1" parent="1">
          <mxGeometry x="1989" y="2480" width="130" height="60" as="geometry" />
        </mxCell>
        <mxCell id="RTWIzIe-_CMWSQACLZg5-5" value="&lt;font face=&quot;Times New Roman&quot; style=&quot;font-size: 18px;&quot;&gt;awblm&lt;/font&gt;" style="rounded=1;whiteSpace=wrap;html=1;" vertex="1" parent="1">
          <mxGeometry x="1880" y="2205" width="100" height="50" as="geometry" />
        </mxCell>
        <mxCell id="RTWIzIe-_CMWSQACLZg5-6" style="edgeStyle=orthogonalEdgeStyle;rounded=0;orthogonalLoop=1;jettySize=auto;html=1;exitX=0.5;exitY=1;exitDx=0;exitDy=0;" edge="1" parent="1">
          <mxGeometry relative="1" as="geometry">
            <mxPoint x="1697" y="2345" as="sourcePoint" />
            <mxPoint x="1697" y="2345" as="targetPoint" />
          </mxGeometry>
        </mxCell>
        <mxCell id="RTWIzIe-_CMWSQACLZg5-7" value="守护进程，workbench管理者" style="text;strokeColor=none;align=center;fillColor=none;html=1;verticalAlign=middle;whiteSpace=wrap;rounded=0;" vertex="1" parent="1">
          <mxGeometry x="1764" y="2215" width="130" height="30" as="geometry" />
        </mxCell>
        <mxCell id="RTWIzIe-_CMWSQACLZg5-8" value="&lt;font face=&quot;Times New Roman&quot;&gt;register/unregister/getGsubInfo&lt;/font&gt;" style="text;strokeColor=none;align=center;fillColor=none;html=1;verticalAlign=middle;whiteSpace=wrap;rounded=0;" vertex="1" parent="1">
          <mxGeometry x="1688" y="2050" width="182" height="30" as="geometry" />
        </mxCell>
        <mxCell id="RTWIzIe-_CMWSQACLZg5-9" value="" style="edgeStyle=elbowEdgeStyle;elbow=horizontal;endArrow=classic;html=1;curved=0;rounded=0;endSize=8;startSize=8;exitX=1;exitY=0.5;exitDx=0;exitDy=0;strokeColor=#001DBC;strokeWidth=2;entryX=0.5;entryY=0;entryDx=0;entryDy=0;fillColor=#0050ef;" edge="1" parent="1" source="RTWIzIe-_CMWSQACLZg5-2" target="RTWIzIe-_CMWSQACLZg5-5">
          <mxGeometry width="50" height="50" relative="1" as="geometry">
            <mxPoint x="2102" y="2170" as="sourcePoint" />
            <mxPoint x="2040" y="2140" as="targetPoint" />
            <Array as="points">
              <mxPoint x="1930" y="2140" />
            </Array>
          </mxGeometry>
        </mxCell>
        <mxCell id="RTWIzIe-_CMWSQACLZg5-10" value="&lt;font face=&quot;Times New Roman&quot;&gt;register/unregister/call gjob/lsf&lt;br&gt;doe&lt;br&gt;&lt;/font&gt;" style="text;strokeColor=none;align=center;fillColor=none;html=1;verticalAlign=middle;whiteSpace=wrap;rounded=0;" vertex="1" parent="1">
          <mxGeometry x="1721.5" y="2376" width="215" height="30" as="geometry" />
        </mxCell>
        <mxCell id="RTWIzIe-_CMWSQACLZg5-11" value="" style="edgeStyle=elbowEdgeStyle;elbow=vertical;endArrow=classic;html=1;curved=0;rounded=0;endSize=8;startSize=8;exitX=1;exitY=0.5;exitDx=0;exitDy=0;entryX=0.5;entryY=1;entryDx=0;entryDy=0;" edge="1" parent="1" source="RTWIzIe-_CMWSQACLZg5-3" target="RTWIzIe-_CMWSQACLZg5-5">
          <mxGeometry width="50" height="50" relative="1" as="geometry">
            <mxPoint x="1810" y="2550" as="sourcePoint" />
            <mxPoint x="1860" y="2500" as="targetPoint" />
            <Array as="points">
              <mxPoint x="1830" y="2400" />
            </Array>
          </mxGeometry>
        </mxCell>
        <mxCell id="RTWIzIe-_CMWSQACLZg5-12" value="" style="edgeStyle=elbowEdgeStyle;elbow=horizontal;endArrow=classic;html=1;curved=0;rounded=0;endSize=8;startSize=8;exitX=0.5;exitY=1;exitDx=0;exitDy=0;strokeColor=#001DBC;strokeWidth=2;entryX=0;entryY=0.5;entryDx=0;entryDy=0;fillColor=#0050ef;" edge="1" parent="1" source="RTWIzIe-_CMWSQACLZg5-3" target="RTWIzIe-_CMWSQACLZg5-4">
          <mxGeometry width="50" height="50" relative="1" as="geometry">
            <mxPoint x="1647" y="2550" as="sourcePoint" />
            <mxPoint x="1910" y="2675" as="targetPoint" />
            <Array as="points">
              <mxPoint x="1607" y="2510" />
            </Array>
          </mxGeometry>
        </mxCell>
        <mxCell id="RTWIzIe-_CMWSQACLZg5-13" value="&lt;font face=&quot;Times New Roman&quot; style=&quot;font-size: 18px;&quot;&gt;ajob&lt;/font&gt;" style="rounded=1;whiteSpace=wrap;html=1;" vertex="1" parent="1">
          <mxGeometry x="2339" y="2215" width="180" height="60" as="geometry" />
        </mxCell>
        <mxCell id="RTWIzIe-_CMWSQACLZg5-14" value="&lt;span style=&quot;font-size: 18px;&quot;&gt;&lt;font face=&quot;Times New Roman&quot;&gt;sprocess&lt;/font&gt;&lt;/span&gt;" style="rounded=1;whiteSpace=wrap;html=1;" vertex="1" parent="1">
          <mxGeometry x="2219" y="2346" width="92" height="60" as="geometry" />
        </mxCell>
        <mxCell id="RTWIzIe-_CMWSQACLZg5-15" value="&lt;span style=&quot;font-size: 18px;&quot;&gt;&lt;font face=&quot;Times New Roman&quot;&gt;sdevice&lt;/font&gt;&lt;/span&gt;" style="rounded=1;whiteSpace=wrap;html=1;" vertex="1" parent="1">
          <mxGeometry x="2375" y="2346" width="107" height="60" as="geometry" />
        </mxCell>
        <mxCell id="RTWIzIe-_CMWSQACLZg5-16" value="&lt;span style=&quot;font-size: 18px;&quot;&gt;.......&lt;/span&gt;" style="rounded=1;whiteSpace=wrap;html=1;" vertex="1" parent="1">
          <mxGeometry x="2541" y="2346" width="92" height="60" as="geometry" />
        </mxCell>
        <mxCell id="RTWIzIe-_CMWSQACLZg5-17" style="edgeStyle=orthogonalEdgeStyle;rounded=0;orthogonalLoop=1;jettySize=auto;html=1;exitX=0.5;exitY=1;exitDx=0;exitDy=0;" edge="1" parent="1">
          <mxGeometry relative="1" as="geometry">
            <mxPoint x="2516" y="2205" as="sourcePoint" />
            <mxPoint x="2516" y="2205" as="targetPoint" />
          </mxGeometry>
        </mxCell>
        <mxCell id="RTWIzIe-_CMWSQACLZg5-18" value="call tools&lt;br&gt;monitor tools&lt;br&gt;Extract doe" style="text;strokeColor=none;align=center;fillColor=none;html=1;verticalAlign=middle;whiteSpace=wrap;rounded=0;" vertex="1" parent="1">
          <mxGeometry x="2314" y="2290" width="230" height="30" as="geometry" />
        </mxCell>
        <mxCell id="RTWIzIe-_CMWSQACLZg5-19" value="" style="edgeStyle=elbowEdgeStyle;elbow=vertical;endArrow=classic;html=1;curved=0;rounded=0;endSize=8;startSize=8;exitX=0.5;exitY=1;exitDx=0;exitDy=0;entryX=0.5;entryY=0;entryDx=0;entryDy=0;" edge="1" parent="1" source="RTWIzIe-_CMWSQACLZg5-13" target="RTWIzIe-_CMWSQACLZg5-14">
          <mxGeometry width="50" height="50" relative="1" as="geometry">
            <mxPoint x="2209" y="2330" as="sourcePoint" />
            <mxPoint x="2259" y="2280" as="targetPoint" />
          </mxGeometry>
        </mxCell>
        <mxCell id="RTWIzIe-_CMWSQACLZg5-20" value="" style="edgeStyle=elbowEdgeStyle;elbow=vertical;endArrow=classic;html=1;curved=0;rounded=0;endSize=8;startSize=8;entryX=0.5;entryY=0;entryDx=0;entryDy=0;" edge="1" parent="1" target="RTWIzIe-_CMWSQACLZg5-15">
          <mxGeometry width="50" height="50" relative="1" as="geometry">
            <mxPoint x="2429" y="2280" as="sourcePoint" />
            <mxPoint x="2384" y="2360" as="targetPoint" />
          </mxGeometry>
        </mxCell>
        <mxCell id="RTWIzIe-_CMWSQACLZg5-21" value="" style="edgeStyle=elbowEdgeStyle;elbow=vertical;endArrow=classic;html=1;curved=0;rounded=0;endSize=8;startSize=8;entryX=0.5;entryY=0;entryDx=0;entryDy=0;exitX=0.5;exitY=1;exitDx=0;exitDy=0;" edge="1" parent="1" source="RTWIzIe-_CMWSQACLZg5-13" target="RTWIzIe-_CMWSQACLZg5-16">
          <mxGeometry width="50" height="50" relative="1" as="geometry">
            <mxPoint x="2439" y="2290" as="sourcePoint" />
            <mxPoint x="2439" y="2355" as="targetPoint" />
            <Array as="points">
              <mxPoint x="2509" y="2310" />
            </Array>
          </mxGeometry>
        </mxCell>
        <mxCell id="RTWIzIe-_CMWSQACLZg5-22" value="" style="edgeStyle=elbowEdgeStyle;elbow=horizontal;endArrow=classic;html=1;curved=0;rounded=0;endSize=8;startSize=8;exitX=1;exitY=0.5;exitDx=0;exitDy=0;strokeColor=#001DBC;strokeWidth=2;entryX=0;entryY=0.5;entryDx=0;entryDy=0;fillColor=#0050ef;" edge="1" parent="1" source="RTWIzIe-_CMWSQACLZg5-4" target="RTWIzIe-_CMWSQACLZg5-13">
          <mxGeometry width="50" height="50" relative="1" as="geometry">
            <mxPoint x="2217" y="2498" as="sourcePoint" />
            <mxPoint x="2600" y="2540" as="targetPoint" />
            <Array as="points">
              <mxPoint x="2199" y="2380" />
            </Array>
          </mxGeometry>
        </mxCell>
        <mxCell id="RTWIzIe-_CMWSQACLZg5-23" value="" style="edgeStyle=orthogonalEdgeStyle;endArrow=classic;html=1;rounded=0;endSize=8;startSize=8;exitX=0.5;exitY=0;exitDx=0;exitDy=0;entryX=1;entryY=0.5;entryDx=0;entryDy=0;curved=1;" edge="1" parent="1" source="RTWIzIe-_CMWSQACLZg5-13">
          <mxGeometry width="50" height="50" relative="1" as="geometry">
            <mxPoint x="2219" y="2150" as="sourcePoint" />
            <mxPoint x="1979" y="2230" as="targetPoint" />
          </mxGeometry>
        </mxCell>
        <mxCell id="RTWIzIe-_CMWSQACLZg5-24" value="call gjob" style="text;strokeColor=none;align=center;fillColor=none;html=1;verticalAlign=middle;whiteSpace=wrap;rounded=0;" vertex="1" parent="1">
          <mxGeometry x="2098" y="2489" width="130" height="30" as="geometry" />
        </mxCell>
        <mxCell id="RTWIzIe-_CMWSQACLZg5-25" value="" style="edgeStyle=elbowEdgeStyle;elbow=horizontal;endArrow=classic;html=1;curved=0;rounded=0;endSize=8;startSize=8;exitX=1;exitY=0.5;exitDx=0;exitDy=0;strokeColor=#001DBC;strokeWidth=2;entryX=0;entryY=0.5;entryDx=0;entryDy=0;fillColor=#0050ef;" edge="1" parent="1">
          <mxGeometry width="50" height="50" relative="1" as="geometry">
            <mxPoint x="2119" y="2510" as="sourcePoint" />
            <mxPoint x="2339" y="2245" as="targetPoint" />
            <Array as="points">
              <mxPoint x="2199" y="2380" />
            </Array>
          </mxGeometry>
        </mxCell>
        <mxCell id="RTWIzIe-_CMWSQACLZg5-26" value="job status" style="text;strokeColor=none;align=center;fillColor=none;html=1;verticalAlign=middle;whiteSpace=wrap;rounded=0;" vertex="1" parent="1">
          <mxGeometry x="2053" y="2200" width="130" height="30" as="geometry" />
        </mxCell>
        <mxCell id="RTWIzIe-_CMWSQACLZg5-27" value="&lt;font face=&quot;Times New Roman&quot;&gt;run project&lt;br&gt;run job&lt;br&gt;abort job&lt;br&gt;&lt;/font&gt;" style="text;strokeColor=none;align=center;fillColor=none;html=1;verticalAlign=middle;whiteSpace=wrap;rounded=0;" vertex="1" parent="1">
          <mxGeometry x="1516" y="2185" width="182" height="30" as="geometry" />
        </mxCell>
      </root>
    </mxGraphModel>
  </diagram>
</mxfile>
